<svg xmlns="http://www.w3.org/2000/svg" width="182.007" height="123.509" viewBox="0 0 182.007 123.509">
  <path id="Icon_metro-barcode" data-name="Icon metro-barcode" d="M2.571,5.784H25.322V108.708H2.571Zm34.126,0H48.072V108.708H36.7Zm22.751,0H70.823V108.708H59.448Zm34.126,0H104.95V108.708H93.574Zm45.5,0h11.375V108.708H139.076Zm34.126,0h11.375V108.708H173.2Zm-56.877,0h5.688V108.708h-5.688Zm-34.126,0h5.688V108.708H82.2Zm73.94,0h5.688V108.708h-5.688ZM2.571,119H13.946v10.292H2.571ZM36.7,119H48.073v10.292H36.7Zm22.751,0H70.823v10.292H59.448Zm56.877,0H127.7v10.292H116.325Zm56.877,0h11.375v10.292H173.2Zm-34.126,0h22.751v10.292H139.076ZM82.2,119H104.95v10.292H82.2Z" transform="translate(-2.571 -5.784)" opacity="0.116"/>
</svg>
