<svg xmlns="http://www.w3.org/2000/svg" width="25" height="25" viewBox="0 0 25 25">
  <path id="Icon_awesome-chevron-circle-left" data-name="Icon awesome-chevron-circle-left" d="M13.063,25.563a12.5,12.5,0,1,1,12.5-12.5A12.5,12.5,0,0,1,13.063,25.563ZM7.322,13.919l6.83,6.83a1.2,1.2,0,0,0,1.709,0l.857-.857a1.2,1.2,0,0,0,0-1.709L11.6,13.062l5.121-5.121a1.2,1.2,0,0,0,0-1.709l-.857-.857a1.2,1.2,0,0,0-1.709,0l-6.83,6.83A1.211,1.211,0,0,0,7.322,13.919Z" transform="translate(-0.563 -0.563)" fill="#40acff"/>
</svg>
