<svg xmlns="http://www.w3.org/2000/svg" width="101.475" height="120.817" viewBox="0 0 101.475 120.817">
  <path id="Icon_awesome-lock" data-name="Icon awesome-lock" d="M90.6,52.857H85.167V35.868C85.167,16.093,69.719,0,50.738,0S16.308,16.093,16.308,35.868v16.99H10.872A11.109,11.109,0,0,0,0,64.184v45.306a11.109,11.109,0,0,0,10.872,11.327H90.6a11.109,11.109,0,0,0,10.872-11.327V64.184A11.109,11.109,0,0,0,90.6,52.857Zm-23.557,0H34.429V35.868c0-9.368,7.316-16.99,16.308-16.99S67.046,26.5,67.046,35.868Z" fill="#707070"/>
</svg>
