<svg xmlns="http://www.w3.org/2000/svg" width="50.78" height="53.576" viewBox="0 0 50.78 53.576">
  <path id="Icon_awesome-user-alt" data-name="Icon awesome-user-alt" d="M25.39,30.136c7.885,0,14.282-6.749,14.282-15.068S33.275,0,25.39,0,11.108,6.749,11.108,15.068,17.505,30.136,25.39,30.136Zm12.695,3.348H32.62a16.449,16.449,0,0,1-14.46,0H12.695C5.683,33.485,0,39.481,0,46.879v1.674a4.9,4.9,0,0,0,4.761,5.023H46.019a4.9,4.9,0,0,0,4.761-5.023V46.879C50.78,39.481,45.1,33.485,38.085,33.485Z" fill="#40acff"/>
</svg>
